<svg xmlns="http://www.w3.org/2000/svg" width="512" height="512" viewBox="0 0 43 43" shape-rendering="crispEdges" role="img" aria-labelledby="qr-maps-title">
  <title id="qr-maps-title">QR Code — Itinéraire Kayzen Lyon, 6 rue Pierre Termier 69009 Lyon</title>
  <defs>
    <linearGradient id="maps-grad" x1="0" y1="0" x2="43" y2="43" gradientUnits="userSpaceOnUse">
      <stop offset="0%"   stop-color="#10b981"/>
      <stop offset="50%"  stop-color="#059669"/>
      <stop offset="100%" stop-color="#14b8a6"/>
    </linearGradient>
    <filter id="maps-glow" x="-8%" y="-8%" width="116%" height="116%" color-interpolation-filters="sRGB">
      <feGaussianBlur in="SourceAlpha" stdDeviation="0.4" result="blur"/>
      <feFlood flood-color="#10b981" flood-opacity="0.35" result="color"/>
      <feComposite in="color" in2="blur" operator="in" result="glow"/>
      <feMerge><feMergeNode in="glow"/><feMergeNode in="SourceGraphic"/></feMerge>
    </filter>
  </defs>
  <g filter="url(#maps-glow)">
    <path stroke="url(#maps-grad)" d="M1 1.5h7m1 0h1m1 0h1m1 0h1m10 0h5m1 0h3m2 0h7M1 2.5h1m5 0h1m2 0h2m1 0h5m4 0h2m3 0h2m1 0h1m1 0h1m2 0h1m5 0h1M1 3.5h1m1 0h3m1 0h1m2 0h3m5 0h3m6 0h3m2 0h2m1 0h1m1 0h3m1 0h1M1 4.5h1m1 0h3m1 0h1m1 0h5m2 0h8m2 0h1m1 0h1m3 0h1m2 0h1m1 0h3m1 0h1M1 5.5h1m1 0h3m1 0h1m3 0h1m1 0h1m4 0h2m1 0h1m2 0h10m1 0h1m1 0h3m1 0h1M1 6.5h1m5 0h1m2 0h2m2 0h2m1 0h1m2 0h3m2 0h4m1 0h4m1 0h1m5 0h1M1 7.5h7m1 0h1m1 0h1m1 0h1m1 0h1m1 0h1m1 0h1m1 0h1m1 0h1m1 0h1m1 0h1m1 0h1m1 0h1m1 0h7M14 8.5h1m2 0h5m2 0h1m2 0h1m1 0h5M3 9.5h1m1 0h3m1 0h1m2 0h2m1 0h1m1 0h1m1 0h1m1 0h2m2 0h1m3 0h2m1 0h3m3 0h1m2 0h1M1 10.5h2m3 0h1m2 0h2m3 0h1m2 0h1m2 0h1m1 0h3m1 0h1m2 0h1m3 0h3m2 0h4M1 11.5h1m3 0h3m2 0h1m1 0h1m1 0h1m1 0h4m1 0h5m1 0h1m1 0h2m3 0h2m1 0h1m1 0h3M1 12.5h1m3 0h2m4 0h1m10 0h3m1 0h1m2 0h3m1 0h4M2 13.5h2m2 0h3m1 0h2m2 0h1m1 0h1m1 0h1m1 0h2m1 0h3m2 0h5m2 0h1m2 0h1M1 14.5h1m1 0h1m4 0h1m4 0h4m1 0h1m1 0h1m1 0h1m1 0h2m3 0h3m3 0h2m2 0h1m1 0h1M3 15.5h1m1 0h3m2 0h1m3 0h1m1 0h1m1 0h1m3 0h1m3 0h2m5 0h1m1 0h4m1 0h2M2 16.5h1m2 0h2m1 0h3m1 0h1m2 0h3m2 0h1m1 0h1m2 0h3m1 0h4m2 0h1m4 0h2M4 17.5h1m1 0h4m2 0h3m3 0h1m1 0h1m4 0h1m2 0h1m1 0h2m3 0h2m4 0h1M2 18.5h1m2 0h1m3 0h3m1 0h1m1 0h1m2 0h1m1 0h1m5 0h1m2 0h1m3 0h1m1 0h1m4 0h2M2 19.5h2m1 0h3m1 0h3m2 0h3m1 0h1m1 0h2m1 0h1m2 0h2m2 0h2m1 0h2m2 0h5M1 20.5h1m1 0h1m4 0h1m1 0h3m1 0h1m2 0h1m2 0h3m1 0h3m1 0h4m2 0h3m4 0h1M2 21.5h3m1 0h3m3 0h3m3 0h2m1 0h2m1 0h1m2 0h1m5 0h4m3 0h1M1 22.5h2m3 0h1m3 0h1m5 0h2m1 0h1m1 0h1m3 0h1m1 0h1m2 0h1m2 0h4m3 0h2M4 23.5h1m2 0h5m2 0h3m1 0h1m3 0h1m1 0h1m2 0h1m3 0h1m4 0h1m1 0h4M4 24.5h2m3 0h6m1 0h1m1 0h1m2 0h11m1 0h1m2 0h2m2 0h2M2 25.5h2m3 0h1m1 0h3m4 0h3m1 0h7m1 0h3m1 0h7M5 26.5h1m2 0h2m1 0h2m2 0h3m5 0h3m1 0h1m3 0h1m2 0h2m4 0h2M1 27.5h3m1 0h6m1 0h3m2 0h3m1 0h3m1 0h2m3 0h1m5 0h1m2 0h3M5 28.5h1m3 0h1m2 0h1m1 0h3m8 0h1m1 0h1m2 0h2m1 0h1m2 0h2M2 29.5h1m3 0h2m1 0h1m1 0h1m2 0h1m2 0h3m2 0h1m3 0h1m2 0h2m1 0h1m2 0h1m2 0h1m1 0h1M2 30.5h1m6 0h1m1 0h1m2 0h3m3 0h6m1 0h1m1 0h1m1 0h1m3 0h1m5 0h1M1 31.5h1m1 0h1m1 0h1m1 0h1m2 0h2m2 0h2m3 0h2m2 0h1m2 0h2m2 0h2m1 0h1m3 0h2m1 0h2M2 32.5h3m3 0h1m1 0h2m2 0h4m4 0h2m1 0h2m1 0h1m1 0h3m1 0h2m1 0h1m3 0h1M1 33.5h1m4 0h4m2 0h1m2 0h2m3 0h3m2 0h1m1 0h3m3 0h5M9 34.5h3m2 0h2m2 0h2m1 0h2m1 0h1m2 0h1m1 0h1m1 0h1m1 0h1m3 0h1m2 0h2M1 35.5h7m4 0h4m1 0h2m1 0h1m3 0h1m4 0h1m2 0h2m1 0h1m1 0h5M1 36.5h1m5 0h1m1 0h4m4 0h1m2 0h3m3 0h5m2 0h1m3 0h2m2 0h1M1 37.5h1m1 0h3m1 0h1m1 0h1m2 0h2m2 0h1m4 0h1m2 0h2m1 0h1m2 0h1m2 0h5m2 0h2M1 38.5h1m1 0h3m1 0h1m2 0h1m2 0h1m1 0h1m3 0h4m1 0h1m1 0h2m2 0h2m2 0h1m2 0h2m2 0h1M1 39.5h1m1 0h3m1 0h1m1 0h1m1 0h1m2 0h1m1 0h3m1 0h3m1 0h2m1 0h1m3 0h3m2 0h2m3 0h1M1 40.5h1m5 0h1m3 0h3m3 0h1m1 0h2m4 0h4m1 0h1m1 0h3m1 0h1m1 0h1m1 0h1M1 41.5h7m2 0h1m1 0h1m3 0h2m1 0h1m1 0h1m5 0h1m2 0h1m1 0h3m1 0h2m2 0h2"/>
  </g>
</svg>
