<svg xmlns="http://www.w3.org/2000/svg" width="512" height="512" viewBox="0 0 51 51" shape-rendering="crispEdges" role="img" aria-labelledby="qr-reviews-title">
  <title id="qr-reviews-title">QR Code — Consulter ou déposer un avis Google sur Kayzen Lyon</title>
  <defs>
    <linearGradient id="reviews-grad" x1="0" y1="0" x2="51" y2="51" gradientUnits="userSpaceOnUse">
      <stop offset="0%"   stop-color="#f59e0b"/>
      <stop offset="50%"  stop-color="#d97706"/>
      <stop offset="100%" stop-color="#f97316"/>
    </linearGradient>
    <filter id="reviews-glow" x="-8%" y="-8%" width="116%" height="116%" color-interpolation-filters="sRGB">
      <feGaussianBlur in="SourceAlpha" stdDeviation="0.4" result="blur"/>
      <feFlood flood-color="#d97706" flood-opacity="0.35" result="color"/>
      <feComposite in="color" in2="blur" operator="in" result="glow"/>
      <feMerge><feMergeNode in="glow"/><feMergeNode in="SourceGraphic"/></feMerge>
    </filter>
  </defs>
  <g filter="url(#reviews-glow)">
    <path stroke="url(#reviews-grad)" d="M1 1.5h7m1 0h1m3 0h1m1 0h3m3 0h1m1 0h3m1 0h2m2 0h1m1 0h1m2 0h1m4 0h1m1 0h7M1 2.5h1m5 0h1m1 0h1m1 0h5m2 0h1m5 0h1m2 0h3m2 0h4m1 0h5m1 0h1m5 0h1M1 3.5h1m1 0h3m1 0h1m1 0h1m1 0h1m1 0h3m3 0h4m1 0h4m4 0h2m1 0h2m3 0h2m1 0h1m1 0h3m1 0h1M1 4.5h1m1 0h3m1 0h1m2 0h3m1 0h1m3 0h3m1 0h2m1 0h2m3 0h1m1 0h7m1 0h1m2 0h1m1 0h3m1 0h1M1 5.5h1m1 0h3m1 0h1m2 0h1m1 0h1m3 0h3m1 0h2m1 0h6m1 0h1m1 0h3m1 0h1m1 0h1m4 0h1m1 0h3m1 0h1M1 6.5h1m5 0h1m1 0h1m2 0h1m1 0h1m6 0h3m3 0h1m1 0h11m3 0h1m5 0h1M1 7.5h7m1 0h1m1 0h1m1 0h1m1 0h1m1 0h1m1 0h1m1 0h1m1 0h1m1 0h1m1 0h1m1 0h1m1 0h1m1 0h1m1 0h1m1 0h1m1 0h1m1 0h7M9 8.5h1m1 0h4m2 0h1m1 0h3m1 0h1m3 0h4m2 0h3m1 0h2m1 0h1M3 9.5h3m1 0h1m1 0h1m1 0h1m1 0h5m1 0h10m1 0h1m1 0h1m3 0h1m1 0h1m1 0h5m2 0h3M2 10.5h1m1 0h1m1 0h1m2 0h4m1 0h2m1 0h5m1 0h2m1 0h1m2 0h1m8 0h1m4 0h1m1 0h1M1 11.5h3m2 0h2m3 0h2m2 0h3m2 0h1m2 0h1m2 0h2m2 0h3m1 0h3m2 0h1m1 0h1m2 0h1m3 0h2M1 12.5h3m2 0h1m7 0h1m1 0h1m1 0h1m1 0h1m2 0h1m1 0h4m2 0h1m2 0h1m4 0h2m1 0h5m1 0h1M2 13.5h1m1 0h6m1 0h1m1 0h2m1 0h1m2 0h2m1 0h1m1 0h3m1 0h5m3 0h3m1 0h4m2 0h3M1 14.5h1m2 0h1m1 0h1m4 0h3m2 0h1m1 0h1m1 0h1m5 0h2m1 0h2m5 0h1m1 0h1m1 0h1m1 0h3m1 0h2M2 15.5h1m1 0h2m1 0h2m1 0h2m1 0h4m2 0h1m2 0h2m1 0h1m4 0h2m3 0h1m3 0h4m3 0h1m1 0h2M1 16.5h1m2 0h2m4 0h1m1 0h3m3 0h5m5 0h1m2 0h1m2 0h1m5 0h4m1 0h1m2 0h1M1 17.5h1m2 0h2m1 0h2m6 0h3m3 0h1m4 0h1m2 0h1m1 0h1m4 0h3m1 0h1m3 0h1m1 0h2m1 0h1M1 18.5h1m2 0h1m1 0h1m2 0h1m1 0h2m3 0h1m2 0h2m5 0h1m2 0h2m1 0h3m2 0h1m3 0h3m2 0h2M1 19.5h1m1 0h1m1 0h1m1 0h2m1 0h1m2 0h1m2 0h1m7 0h1m1 0h2m1 0h1m2 0h2m3 0h2m1 0h3m1 0h3m1 0h2M3 20.5h1m2 0h1m3 0h1m1 0h7m2 0h1m1 0h1m1 0h3m1 0h5m4 0h2m1 0h1m1 0h3m2 0h1M3 21.5h1m3 0h2m4 0h1m3 0h5m2 0h1m1 0h1m1 0h1m2 0h1m1 0h1m1 0h7m1 0h2m2 0h2M4 22.5h2m2 0h5m2 0h1m1 0h2m1 0h1m1 0h1m2 0h1m4 0h1m1 0h3m1 0h2m4 0h2m3 0h1M5 23.5h5m1 0h1m2 0h2m1 0h1m1 0h2m1 0h7m2 0h2m1 0h4m1 0h1m1 0h5m1 0h3M1 24.5h1m2 0h2m3 0h1m1 0h1m1 0h2m1 0h6m1 0h1m3 0h1m1 0h1m1 0h1m4 0h1m1 0h4m3 0h1m2 0h1M2 25.5h1m2 0h1m1 0h1m1 0h1m3 0h2m1 0h1m1 0h1m3 0h2m1 0h1m1 0h1m2 0h4m2 0h4m1 0h1m1 0h1m1 0h3M1 26.5h5m3 0h1m3 0h2m1 0h1m2 0h1m3 0h1m3 0h1m5 0h1m2 0h1m1 0h1m2 0h1m3 0h3M3 27.5h9m2 0h1m2 0h1m1 0h1m1 0h8m2 0h6m2 0h1m1 0h6m1 0h2M2 28.5h1m1 0h1m3 0h1m3 0h1m1 0h4m1 0h3m1 0h3m5 0h1m1 0h4m2 0h1m1 0h2m1 0h1m1 0h1M1 29.5h1m1 0h2m2 0h2m1 0h2m7 0h1m2 0h1m2 0h3m2 0h1m4 0h4m1 0h1m1 0h2m1 0h1m1 0h3M1 30.5h1m2 0h3m2 0h1m1 0h4m3 0h1m1 0h1m4 0h4m1 0h1m1 0h2m2 0h1m1 0h1m3 0h3m2 0h1M2 31.5h9m1 0h1m3 0h1m2 0h5m4 0h1m1 0h1m3 0h1m1 0h5m2 0h2m1 0h4M1 32.5h4m1 0h1m2 0h9m2 0h1m4 0h4m1 0h1m1 0h1m3 0h3m2 0h1m2 0h3M4 33.5h1m2 0h1m1 0h1m4 0h3m2 0h1m1 0h1m1 0h2m1 0h4m7 0h2m1 0h3m2 0h3m1 0h1M1 34.5h4m4 0h3m2 0h1m3 0h2m1 0h1m2 0h1m3 0h1m3 0h1m3 0h2m4 0h3m1 0h2M1 35.5h1m2 0h1m2 0h6m2 0h1m3 0h1m2 0h1m4 0h2m1 0h1m4 0h1m1 0h1m1 0h1m2 0h2m3 0h3M2 36.5h2m1 0h1m2 0h1m2 0h1m1 0h2m3 0h4m2 0h1m3 0h6m4 0h1m2 0h1m1 0h2m3 0h2M2 37.5h1m1 0h1m1 0h4m1 0h3m2 0h1m4 0h3m1 0h1m2 0h1m1 0h3m1 0h2m1 0h2m1 0h1m3 0h2M3 38.5h4m4 0h1m1 0h1m1 0h1m1 0h3m1 0h2m2 0h3m4 0h1m5 0h1m2 0h2m4 0h1M2 39.5h1m3 0h3m1 0h4m2 0h1m1 0h1m1 0h2m3 0h1m7 0h3m1 0h3m1 0h6m1 0h2M2 40.5h3m5 0h2m6 0h1m1 0h2m5 0h2m1 0h4m1 0h5m2 0h1m2 0h2M1 41.5h3m3 0h2m1 0h1m1 0h1m1 0h1m2 0h3m1 0h7m3 0h2m1 0h4m1 0h7m1 0h1m1 0h1M9 42.5h3m1 0h2m2 0h1m2 0h1m2 0h1m3 0h4m2 0h1m1 0h2m1 0h2m1 0h1m3 0h1M1 43.5h7m3 0h4m1 0h1m2 0h5m1 0h1m1 0h3m4 0h1m6 0h1m1 0h1m1 0h2m1 0h2M1 44.5h1m5 0h1m3 0h1m3 0h2m1 0h1m1 0h2m1 0h1m3 0h3m1 0h3m1 0h1m2 0h4m3 0h1m2 0h1M1 45.5h1m1 0h3m1 0h1m1 0h2m4 0h4m1 0h1m1 0h6m2 0h1m1 0h1m1 0h12m1 0h3M1 46.5h1m1 0h3m1 0h1m1 0h4m1 0h5m1 0h1m2 0h1m1 0h1m4 0h2m6 0h1m1 0h1m2 0h3m3 0h1M1 47.5h1m1 0h3m1 0h1m1 0h3m2 0h1m5 0h2m2 0h2m1 0h1m2 0h1m1 0h4m2 0h3m3 0h1m2 0h3M1 48.5h1m5 0h1m2 0h2m1 0h2m4 0h7m5 0h4m3 0h8m3 0h1M1 49.5h7m7 0h3m5 0h1m1 0h8m4 0h2m1 0h1m3 0h6"/>
  </g>
</svg>
