<svg xmlns="http://www.w3.org/2000/svg" width="512" height="512" viewBox="0 0 31 31" shape-rendering="crispEdges" role="img" aria-labelledby="qr-site-title">
  <title id="qr-site-title">QR Code — Ouvrir le site Nexus SEO (nexus-seo.app)</title>
  <defs>
    <linearGradient id="site-grad" x1="0" y1="0" x2="31" y2="31" gradientUnits="userSpaceOnUse">
      <stop offset="0%"   stop-color="#3b82f6"/>
      <stop offset="50%"  stop-color="#2563eb"/>
      <stop offset="100%" stop-color="#06b6d4"/>
    </linearGradient>
    <filter id="site-glow" x="-8%" y="-8%" width="116%" height="116%" color-interpolation-filters="sRGB">
      <feGaussianBlur in="SourceAlpha" stdDeviation="0.4" result="blur"/>
      <feFlood flood-color="#3b82f6" flood-opacity="0.35" result="color"/>
      <feComposite in="color" in2="blur" operator="in" result="glow"/>
      <feMerge><feMergeNode in="glow"/><feMergeNode in="SourceGraphic"/></feMerge>
    </filter>
  </defs>
  <g filter="url(#site-glow)">
    <path stroke="url(#site-grad)" d="M1 1.5h7m1 0h1m2 0h4m2 0h1m2 0h1m1 0h7M1 2.5h1m5 0h1m2 0h2m2 0h1m1 0h3m1 0h2m1 0h1m5 0h1M1 3.5h1m1 0h3m1 0h1m2 0h2m1 0h1m3 0h1m1 0h1m1 0h1m1 0h1m1 0h3m1 0h1M1 4.5h1m1 0h3m1 0h1m1 0h3m1 0h1m2 0h2m1 0h3m1 0h1m1 0h3m1 0h1M1 5.5h1m1 0h3m1 0h1m3 0h2m1 0h5m1 0h1m2 0h1m1 0h3m1 0h1M1 6.5h1m5 0h1m2 0h3m1 0h1m4 0h3m1 0h1m5 0h1M1 7.5h7m1 0h1m1 0h1m1 0h1m1 0h1m1 0h1m1 0h1m1 0h1m1 0h7M10 8.5h1m1 0h5m3 0h2M3 9.5h1m1 0h3m1 0h1m1 0h2m1 0h1m1 0h1m4 0h2m3 0h1m2 0h1M3 10.5h1m1 0h2m1 0h1m1 0h1m1 0h1m2 0h4m1 0h4m3 0h1m1 0h1M1 11.5h1m2 0h1m2 0h3m2 0h5m1 0h1m1 0h2m4 0h4M1 12.5h6m1 0h2m2 0h1m2 0h2m4 0h3m1 0h1m2 0h1M6 13.5h3m2 0h3m3 0h1m1 0h3m1 0h2m1 0h1M1 14.5h1m1 0h1m5 0h1m1 0h4m1 0h2m1 0h1m1 0h4m3 0h2M2 15.5h2m1 0h1m1 0h1m2 0h2m3 0h2m1 0h2m1 0h1m1 0h2m2 0h1m1 0h1M2 16.5h1m1 0h1m3 0h1m1 0h10m1 0h1m2 0h1m4 0h1M1 17.5h2m1 0h1m2 0h1m2 0h2m2 0h3m1 0h1m1 0h4m2 0h1m2 0h1M3 18.5h1m1 0h1m6 0h2m2 0h1m1 0h1m1 0h1m2 0h2m1 0h1m1 0h2M1 19.5h1m2 0h1m2 0h5m4 0h1m2 0h1m1 0h2m1 0h1m1 0h1m1 0h2M2 20.5h2m1 0h1m2 0h1m2 0h2m3 0h2m2 0h1m2 0h1m1 0h1M1 21.5h1m1 0h1m2 0h2m1 0h1m1 0h3m4 0h1m2 0h5m2 0h2M9 22.5h1m5 0h1m1 0h5m3 0h1m3 0h1M1 23.5h7m2 0h4m2 0h2m1 0h3m1 0h1m1 0h1m1 0h3M1 24.5h1m5 0h1m1 0h1m2 0h3m3 0h1m2 0h1m3 0h1M1 25.5h1m1 0h3m1 0h1m1 0h2m2 0h3m1 0h1m3 0h6m1 0h2M1 26.5h1m1 0h3m1 0h1m3 0h1m3 0h1m1 0h2m2 0h2m2 0h1M1 27.5h1m1 0h3m1 0h1m1 0h1m1 0h1m1 0h1m2 0h1m1 0h1m1 0h1m3 0h4m1 0h1M1 28.5h1m5 0h1m3 0h2m1 0h4m3 0h2m1 0h1m3 0h1M1 29.5h7m2 0h1m2 0h1m1 0h1m1 0h1m1 0h3m1 0h1m1 0h1m2 0h2"/>
  </g>
</svg>
